<svg xmlns="http://www.w3.org/2000/svg" xmlns:xlink="http://www.w3.org/1999/xlink" width="202.303" height="172.468" viewBox="0 0 202.303 172.468"><defs><filter id="a" x="0" y="0" width="202.303" height="172.468" filterUnits="userSpaceOnUse"><feOffset dy="3" input="SourceAlpha"/><feGaussianBlur stdDeviation="3" result="b"/><feFlood flood-opacity="0.302"/><feComposite operator="in" in2="b"/><feComposite in="SourceGraphic"/></filter></defs><g transform="translate(-123.197 6)"><g transform="matrix(1, 0, 0, 1, 123.2, -6)" filter="url(#a)"><path d="M-722.7,25V144.449l-92.151,35.019L-907,144.449V25Z" transform="translate(916 -19)" fill="#ba131a"/></g><g transform="translate(153.889 21.428)"><text transform="translate(7.308 83.266)" fill="#fff" font-size="19" font-family="Helvetica"><tspan x="0" y="0">GAME WORLD</tspan></text><g transform="translate(14.308)"><path d="M289.654,161.691l-8.794,38.229-9.5-38.229H260.291l-10.072,38.442-4.753-20.943H234.672l9.519,32.079,11.632-.071,9.717-35.25,9.291,35.25h11.7l13.83-49.506Z" transform="translate(-187.487 -157.161)" fill="#fff"/><path d="M152.526,177.778v8.9h19.958a16.867,16.867,0,0,1-5.572,9.854,16.441,16.441,0,0,1-10.894,3.535,18.763,18.763,0,0,1-9.48-2.329,16.173,16.173,0,0,1-6.362-6.653,23.472,23.472,0,0,1-.042-20.124,16.091,16.091,0,0,1,6.237-6.653,17.828,17.828,0,0,1,9.147-2.329c3.1,0,7.158.639,9.486,1.914a24.957,24.957,0,0,1,6.825,5.571h10.715a24.422,24.422,0,0,0-9.979-13.43,32.414,32.414,0,0,0-32.141-1A27.453,27.453,0,0,0,129.782,165.6a32.287,32.287,0,0,0,0,30.645,27.521,27.521,0,0,0,10.644,10.519,30.586,30.586,0,0,0,15.176,3.784,28.974,28.974,0,0,0,13.514-3.119c3.959-2.048,6.145-4.758,8.679-8.125l-6.486-21.521Z" transform="translate(-125.915 -151.251)" fill="#fff"/></g></g></g></svg>